<?xml version="1.0" encoding="UTF-8"?>
<svg id="_Слой_2" data-name="Слой 2" xmlns="http://www.w3.org/2000/svg" viewBox="0 0 492.23 101.58">
  <defs>
    <style>
      .cls-1 {
        fill: #009640;
      }

      .cls-2 {
        fill: #464646;
      }
    </style>
  </defs>
  <g id="_Слой_1-2" data-name="Слой 1">
    <g>
      <path class="cls-2" d="M2.88,42.6V0h7.74V17.34h5.52L26.16,0h8.4l-12.06,20.28v.12l12.78,22.2h-8.76l-10.38-18.6h-5.52v18.6H2.88Z"/>
      <path class="cls-2" d="M37.38,34.14c0-2.16,.59-4,1.77-5.52,1.18-1.52,2.74-2.63,4.68-3.33,1.94-.7,3.82-1.19,5.64-1.47,1.82-.28,3.73-.42,5.73-.42h1.32v-.42c0-3.6-1.92-5.4-5.76-5.4-2.8,0-5.64,.98-8.52,2.94l-2.82-5.46c1.32-1.04,3.1-1.93,5.34-2.67,2.24-.74,4.46-1.11,6.66-1.11,4,0,7.12,1.07,9.36,3.21,2.24,2.14,3.36,5.13,3.36,8.97v19.14h-7.08v-2.58l.18-2.22h-.12c-.96,1.64-2.3,2.97-4.02,3.99-1.72,1.02-3.6,1.53-5.64,1.53-2.84,0-5.23-.85-7.17-2.55-1.94-1.7-2.91-3.91-2.91-6.63Zm7.56-.66c0,1.08,.41,2.02,1.23,2.82,.82,.8,1.95,1.2,3.39,1.2,2.04,0,3.72-.84,5.04-2.52,1.32-1.68,1.98-3.52,1.98-5.52v-.84h-1.32c-6.88,0-10.32,1.62-10.32,4.86Z"/>
      <path class="cls-2" d="M71.88,42.6V12h7.26v24.12h9.54V12h7.26v24.12h9.54V12h7.26v30.6h-40.86Z"/>
      <path class="cls-2" d="M120.9,42.6V12h7.26V28.38c0,1.48-.06,2.7-.18,3.66h.12c.16-.36,.92-1.58,2.28-3.66l11.34-16.38h7.38v30.6h-7.26V26.28c0-.88,.06-2.1,.18-3.66h-.12c-.12,.28-.88,1.5-2.28,3.66l-11.34,16.32h-7.38Z"/>
      <path class="cls-2" d="M157.26,54.6V12h6.96v2.28l-.12,2.16h.12c1-1.64,2.37-2.91,4.11-3.81,1.74-.9,3.65-1.35,5.73-1.35,4.12,0,7.41,1.48,9.87,4.44,2.46,2.96,3.69,6.82,3.69,11.58s-1.31,8.67-3.93,11.61c-2.62,2.94-5.97,4.41-10.05,4.41-3.64,0-6.58-1.44-8.82-4.32h-.12c.12,.72,.18,1.6,.18,2.64v12.96h-7.62Zm7.38-27.12c0,2.56,.68,4.77,2.04,6.63,1.36,1.86,3.22,2.79,5.58,2.79,2.2,0,4.03-.85,5.49-2.55,1.46-1.7,2.19-4.01,2.19-6.93s-.7-5.2-2.1-6.96c-1.4-1.76-3.22-2.64-5.46-2.64s-4.04,.81-5.52,2.43c-1.48,1.62-2.22,4.03-2.22,7.23Z"/>
      <path class="cls-2" d="M192.24,27.3c0-4.48,1.53-8.27,4.59-11.37,3.06-3.1,7.07-4.65,12.03-4.65,2.2,0,4.36,.38,6.48,1.14,2.12,.76,3.88,1.9,5.28,3.42l-3.42,5.22c-2.2-2.2-4.84-3.3-7.92-3.3-2.76,0-5,.91-6.72,2.73-1.72,1.82-2.58,4.07-2.58,6.75s.88,4.95,2.64,6.81c1.76,1.86,4.06,2.79,6.9,2.79,3.32,0,6.32-1.3,9-3.9l2.94,5.4c-1.44,1.52-3.29,2.73-5.55,3.63s-4.61,1.35-7.05,1.35c-4.96,0-8.97-1.53-12.03-4.59s-4.59-6.87-4.59-11.43Z"/>
      <path class="cls-2" d="M226.98,42.6V12h7.62v11.7h3.72l7.44-11.7h8.46l-9.72,14.58v.12l10.92,15.9h-8.82l-8.04-12.42h-3.96v12.42h-7.62Z"/>
      <path class="cls-2" d="M259.92,42.6V12h7.26V28.38c0,1.48-.06,2.7-.18,3.66h.12c.16-.36,.92-1.58,2.28-3.66l11.34-16.38h7.38v30.6h-7.26V26.28c0-.88,.06-2.1,.18-3.66h-.12c-.12,.28-.88,1.5-2.28,3.66l-11.34,16.32h-7.38Z"/>
      <path class="cls-2" d="M296.28,42.6V12h7.26V28.38c0,1.48-.06,2.7-.18,3.66h.12c.16-.36,.92-1.58,2.28-3.66l11.34-16.38h7.38v30.6h-7.26V26.28c0-.88,.06-2.1,.18-3.66h-.12c-.12,.28-.88,1.5-2.28,3.66l-11.34,16.32h-7.38Zm21.06-35.79c-1.92,1.5-4.24,2.25-6.96,2.25s-5.04-.75-6.96-2.25-2.88-3.51-2.88-6.03V0h5.82V.78c0,1.2,.4,2.13,1.2,2.79,.8,.66,1.74,.99,2.82,.99s2.03-.33,2.85-.99c.82-.66,1.23-1.61,1.23-2.85V0h5.76V.78c0,2.52-.96,4.53-2.88,6.03Z"/>
      <path class="cls-2" d="M343.98,35.94h4.32c4.12-6.24,6.18-15.12,6.18-26.64V0h26.46V35.94h4.74v15.06h-6.9v-8.4h-27.66v8.4h-7.14v-15.06Zm12.3,0h16.92V6.66h-11.4v3.18c0,11.44-1.84,20.14-5.52,26.1Z"/>
      <path class="cls-2" d="M391.55,42.6V12h14.22c3.16,0,5.67,.69,7.53,2.07,1.86,1.38,2.79,3.33,2.79,5.85,0,1.44-.35,2.77-1.05,3.99-.7,1.22-1.69,2.13-2.97,2.73v.06c1.76,.44,3.1,1.31,4.02,2.61,.92,1.3,1.38,2.77,1.38,4.41,0,2.92-1.05,5.13-3.15,6.63-2.1,1.5-4.85,2.25-8.25,2.25h-14.52Zm7.62-18h4.98c1.4,0,2.46-.37,3.18-1.11,.72-.74,1.08-1.71,1.08-2.91,0-2.4-1.46-3.6-4.38-3.6h-4.86v7.62Zm0,12.96h5.58c1.64,0,2.89-.37,3.75-1.11,.86-.74,1.29-1.73,1.29-2.97s-.44-2.29-1.32-3.03c-.88-.74-2.12-1.11-3.72-1.11h-5.58v8.22Z"/>
      <path class="cls-2" d="M426.83,38.79c-3.24-3.02-4.86-6.85-4.86-11.49s1.62-8.47,4.86-11.49c3.24-3.02,7.2-4.53,11.88-4.53s8.71,1.51,11.97,4.53c3.26,3.02,4.89,6.85,4.89,11.49s-1.62,8.47-4.86,11.49c-3.24,3.02-7.22,4.53-11.94,4.53s-8.7-1.51-11.94-4.53Zm2.88-11.49c0,2.8,.87,5.09,2.61,6.87,1.74,1.78,3.89,2.67,6.45,2.67s4.72-.89,6.48-2.67c1.76-1.78,2.64-4.07,2.64-6.87s-.89-5.04-2.67-6.84c-1.78-1.8-3.93-2.7-6.45-2.7s-4.66,.9-6.42,2.7c-1.76,1.8-2.64,4.08-2.64,6.84Z"/>
      <path class="cls-2" d="M461.87,54.6V12h6.96v2.28l-.12,2.16h.12c1-1.64,2.37-2.91,4.11-3.81,1.74-.9,3.65-1.35,5.73-1.35,4.12,0,7.41,1.48,9.87,4.44,2.46,2.96,3.69,6.82,3.69,11.58s-1.31,8.67-3.93,11.61c-2.62,2.94-5.97,4.41-10.05,4.41-3.64,0-6.58-1.44-8.82-4.32h-.12c.12,.72,.18,1.6,.18,2.64v12.96h-7.62Zm7.38-27.12c0,2.56,.68,4.77,2.04,6.63,1.36,1.86,3.22,2.79,5.58,2.79,2.2,0,4.03-.85,5.49-2.55,1.46-1.7,2.19-4.01,2.19-6.93s-.7-5.2-2.1-6.96c-1.4-1.76-3.22-2.64-5.46-2.64s-4.04,.81-5.52,2.43c-1.48,1.62-2.22,4.03-2.22,7.23Z"/>
    </g>
    <g>
      <path class="cls-1" d="M0,95.88l3.96-5.94c1.2,1.24,2.67,2.27,4.41,3.09,1.74,.82,3.51,1.23,5.31,1.23,2.2,0,4.02-.6,5.46-1.8,1.44-1.2,2.16-2.72,2.16-4.56,0-2.16-.85-3.8-2.55-4.92-1.7-1.12-3.89-1.68-6.57-1.68h-2.94l-1.68-3.96,7.8-9.24c.48-.6,.97-1.17,1.47-1.71,.5-.54,.89-.93,1.17-1.17l.42-.36v-.12c-.88,.12-2.14,.18-3.78,.18H1.92v-6.66H27.9v4.86l-10.38,12.06c3.2,.44,5.93,1.75,8.19,3.93,2.26,2.18,3.39,5.01,3.39,8.49,0,3.84-1.36,7.13-4.08,9.87-2.72,2.74-6.36,4.11-10.92,4.11-2.6,0-5.15-.49-7.65-1.47-2.5-.98-4.65-2.39-6.45-4.23Z"/>
      <path class="cls-1" d="M58.23,99.9c-2.06,1.12-4.49,1.68-7.29,1.68s-5.23-.56-7.29-1.68c-2.06-1.12-3.67-2.72-4.83-4.8-1.16-2.08-2.01-4.4-2.55-6.96-.54-2.56-.81-5.44-.81-8.64s.27-6.08,.81-8.64c.54-2.56,1.39-4.86,2.55-6.9,1.16-2.04,2.76-3.62,4.8-4.74,2.04-1.12,4.48-1.68,7.32-1.68,10.28,0,15.42,7.32,15.42,21.96,0,3.2-.27,6.08-.81,8.64-.54,2.56-1.38,4.88-2.52,6.96-1.14,2.08-2.74,3.68-4.8,4.8Zm-7.29-5.4c5,0,7.5-5,7.5-15s-2.5-14.82-7.5-14.82-7.5,4.94-7.5,14.82,2.5,15,7.5,15Z"/>
      <path class="cls-1" d="M85.98,101.16v-6.72c2.08-.28,3.67-1.51,4.77-3.69,1.1-2.18,1.65-5.81,1.65-10.89v-9.6h22.32v30.6h-7.62v-24.42h-7.44v3.42c0,6.96-1.06,12.21-3.18,15.75-2.12,3.54-5.62,5.39-10.5,5.55Z"/>
      <path class="cls-1" d="M121.02,85.56c0-4.72,1.45-8.57,4.35-11.55,2.9-2.98,6.65-4.47,11.25-4.47,4.24,0,7.56,1.37,9.96,4.11,2.4,2.74,3.6,6.21,3.6,10.41,0,.68-.08,1.66-.24,2.94h-21.06c.24,2.56,1.22,4.55,2.94,5.97,1.72,1.42,3.8,2.13,6.24,2.13,3.04,0,5.96-1.12,8.76-3.36l3,5.46c-1.52,1.36-3.39,2.43-5.61,3.21-2.22,.78-4.45,1.17-6.69,1.17-4.92,0-8.9-1.55-11.94-4.65-3.04-3.1-4.56-6.89-4.56-11.37Zm8.04-3.78h13.5c-.04-2-.63-3.58-1.77-4.74-1.14-1.16-2.59-1.74-4.35-1.74-1.92,0-3.54,.59-4.86,1.77-1.32,1.18-2.16,2.75-2.52,4.71Z"/>
      <path class="cls-1" d="M163.38,100.86v-24.12h-10.08v-6.48h27.78v6.48h-10.14v24.12h-7.56Z"/>
      <path class="cls-1" d="M199.38,85.56c0-4.48,1.53-8.27,4.59-11.37,3.06-3.1,7.07-4.65,12.03-4.65,2.2,0,4.36,.38,6.48,1.14,2.12,.76,3.88,1.9,5.28,3.42l-3.42,5.22c-2.2-2.2-4.84-3.3-7.92-3.3-2.76,0-5,.91-6.72,2.73-1.72,1.82-2.58,4.07-2.58,6.75s.88,4.95,2.64,6.81c1.76,1.86,4.06,2.79,6.9,2.79,3.32,0,6.32-1.3,9-3.9l2.94,5.4c-1.44,1.52-3.29,2.73-5.55,3.63s-4.61,1.35-7.05,1.35c-4.96,0-8.97-1.53-12.03-4.59-3.06-3.06-4.59-6.87-4.59-11.43Z"/>
      <path class="cls-1" d="M250.2,100.86V58.26h15.18c3.96,0,7.15,.97,9.57,2.91,2.42,1.94,3.63,4.63,3.63,8.07,0,2-.46,3.8-1.38,5.4-.92,1.6-2.18,2.84-3.78,3.72v.12c2.24,.64,3.95,1.9,5.13,3.78,1.18,1.88,1.77,3.96,1.77,6.24,0,4.04-1.4,7.11-4.2,9.21-2.8,2.1-6.3,3.15-10.5,3.15h-15.42Zm7.74-25.2h7.5c1.64,0,2.93-.51,3.87-1.53s1.41-2.33,1.41-3.93-.47-2.83-1.41-3.81c-.94-.98-2.27-1.47-3.99-1.47h-7.38v10.74Zm0,18.54h8.28c1.92,0,3.43-.57,4.53-1.71,1.1-1.14,1.65-2.63,1.65-4.47s-.55-3.27-1.65-4.41c-1.1-1.14-2.61-1.71-4.53-1.71h-8.28v12.3Z"/>
      <path class="cls-1" d="M284.76,92.4c0-2.16,.59-4,1.77-5.52,1.18-1.52,2.74-2.63,4.68-3.33,1.94-.7,3.82-1.19,5.64-1.47,1.82-.28,3.73-.42,5.73-.42h1.32v-.42c0-3.6-1.92-5.4-5.76-5.4-2.8,0-5.64,.98-8.52,2.94l-2.82-5.46c1.32-1.04,3.1-1.93,5.34-2.67,2.24-.74,4.46-1.11,6.66-1.11,4,0,7.12,1.07,9.36,3.21,2.24,2.14,3.36,5.13,3.36,8.97v19.14h-7.08v-2.58l.18-2.22h-.12c-.96,1.64-2.3,2.97-4.02,3.99-1.72,1.02-3.6,1.53-5.64,1.53-2.84,0-5.23-.85-7.17-2.55-1.94-1.7-2.91-3.91-2.91-6.63Zm7.56-.66c0,1.08,.41,2.02,1.23,2.82,.82,.8,1.95,1.2,3.39,1.2,2.04,0,3.72-.84,5.04-2.52,1.32-1.68,1.98-3.52,1.98-5.52v-.84h-1.32c-6.88,0-10.32,1.62-10.32,4.86Z"/>
      <path class="cls-1" d="M318,100.86l2.76-30.6h8.64l6.48,15.78,1.5,3.9h.12c.56-1.44,1.06-2.74,1.5-3.9l6.6-15.78h8.52l2.76,30.6h-7.32l-1.08-16.56,.06-5.22h-.12c-.56,1.52-1.16,3-1.8,4.44l-6,13.5h-6.3l-6-13.44-1.86-4.5h-.12l.06,5.22-1.08,16.56h-7.32Z"/>
      <path class="cls-1" d="M363.84,100.86v-30.6h7.26v16.38c0,1.48-.06,2.7-.18,3.66h.12c.16-.36,.92-1.58,2.28-3.66l11.34-16.38h7.38v30.6h-7.26v-16.32c0-.88,.06-2.1,.18-3.66h-.12c-.12,.28-.88,1.5-2.28,3.66l-11.34,16.32h-7.38Z"/>
    </g>
  </g>
</svg>