<svg width="140" height="18" viewBox="0 0 140 18" fill="none" xmlns="http://www.w3.org/2000/svg">
<g clip-path="url(#clip0_971_3777)">
<path fill-rule="evenodd" clip-rule="evenodd" d="M22.8752 9.00378L17.2192 17.5202H11.7583L17.4033 9.00378H22.8752Z" fill="white"/>
<path fill-rule="evenodd" clip-rule="evenodd" d="M17.4091 9.00392L11.7583 0.491211H17.2192L22.8752 9.00392H17.4091Z" fill="white"/>
<path fill-rule="evenodd" clip-rule="evenodd" d="M0 0.491211H0.246034H10.4963V4.5801H5.0291V6.96264H9.98202V10.7076H5.0291V13.4367H10.4963V17.5203H10.2482H0V0.491211Z" fill="white"/>
<path fill-rule="evenodd" clip-rule="evenodd" d="M29.958 0.490967H37.3944C39.2173 0.490967 40.5801 0.880553 41.4827 1.65974C42.3141 2.33577 42.9423 3.22856 43.2979 4.23938C43.4086 4.56688 43.4913 4.90316 43.5452 5.24462C43.6447 5.86604 43.6447 6.49934 43.5452 7.12076C43.4906 7.46504 43.4079 7.80427 43.2979 8.13504C42.9521 9.14933 42.328 10.0459 41.497 10.7224C40.5875 11.5052 39.2173 11.9031 37.3944 11.9031H34.9806V17.5204H29.958V0.490967ZM34.9806 8.1508H36.1026C36.6386 8.1938 37.1751 8.07385 37.6418 7.80668C37.9235 7.62981 38.1513 7.3792 38.3007 7.08202C38.3597 6.91819 38.4002 6.74823 38.4213 6.57535C38.4339 6.41027 38.4427 6.28033 38.4427 6.18192C38.4427 6.0853 38.4401 5.98763 38.4309 5.88948C38.4251 5.79514 38.4061 5.7024 38.3991 5.60166C38.2985 5.23202 38.084 4.90349 37.786 4.66282C37.291 4.33055 36.6959 4.18085 36.1026 4.23938H34.9806V8.1508Z" fill="white"/>
<path fill-rule="evenodd" clip-rule="evenodd" d="M47.0188 15.3065C45.4775 13.5722 44.6408 11.324 44.6733 9.00403C44.6466 6.69674 45.4658 4.45955 46.976 2.71497C48.5175 0.90629 50.8079 0.00130512 53.847 0H54.0927C57.1314 0 59.4191 0.904984 60.9558 2.71497C62.4705 4.45719 63.2919 6.69555 63.2634 9.00403C63.3008 11.3114 62.4782 13.55 60.9558 15.2842C59.4212 17.0612 57.1314 17.9675 54.0927 17.9819L53.847 18C50.8551 18 48.579 17.1022 47.0188 15.3065ZM54.4575 13.8863C54.6402 13.8605 54.8196 13.8156 54.9928 13.7522C55.8314 13.5044 56.5752 13.0085 57.1265 12.3297C57.7744 11.5914 58.0884 10.4843 58.0884 9.00403C58.0884 7.52757 57.7595 6.42207 57.1203 5.68011C56.5641 5.00983 55.8249 4.51578 54.9928 4.25816C54.8151 4.21059 54.6438 4.17106 54.4678 4.13852C54.3024 4.10892 54.1347 4.09327 53.9667 4.09175C53.7792 4.09389 53.5921 4.10953 53.4068 4.13852C53.217 4.17086 53.03 4.21828 52.8477 4.28033C52.035 4.55609 51.3186 5.05951 50.7837 5.73073C50.1565 6.47142 49.8465 7.56085 49.8465 9.00403C49.8465 10.4479 50.1565 11.5358 50.7837 12.2796C51.3183 12.9515 52.0347 13.4555 52.8477 13.7315C53.0302 13.7886 53.2071 13.8362 53.3972 13.8768C53.578 13.9079 53.761 13.9233 53.9444 13.9228C54.1161 13.9215 54.2874 13.9094 54.4575 13.8863Z" fill="white"/>
<path fill-rule="evenodd" clip-rule="evenodd" d="M74.591 5.26122H74.3451C74.2645 5.19302 74.1818 5.12408 74.1053 5.05276C74.0211 4.97657 73.9384 4.90912 73.8583 4.84091C73.4755 4.55088 73.0674 4.29589 72.6389 4.07906C72.2367 3.87426 71.7938 3.76207 71.3425 3.75069C70.9904 3.74067 70.6431 3.83378 70.3432 4.01857C70.1322 4.15715 69.9638 4.3515 69.8565 4.58001C69.7939 4.68564 69.7508 4.80167 69.7294 4.92255C69.7171 5.01751 69.7101 5.11306 69.7082 5.20879C69.7006 5.36759 69.7301 5.52599 69.7942 5.67148C69.8583 5.81696 69.9553 5.94556 70.0776 6.04715C70.3172 6.25403 70.5984 6.40706 70.9023 6.49589C71.0452 6.54966 71.1925 6.59106 71.3425 6.61964C71.4954 6.65763 71.62 6.68709 71.7342 6.71624C72.0266 6.78217 72.3642 6.8665 72.7469 6.96922C73.1542 7.08907 73.5519 7.23906 73.9369 7.41794C74.7607 7.81723 75.4898 8.38771 76.0755 9.09127C76.7276 9.84281 77.0583 10.9468 77.0583 12.4145C77.0583 14.373 76.4101 15.7903 75.1139 16.6664C73.7928 17.5527 72.2314 18.0119 70.6408 17.9819L70.3949 18C69.9605 17.9959 69.5272 17.9574 69.099 17.885C68.6859 17.8198 68.2785 17.7223 67.8806 17.5933C67.2382 17.3795 66.6218 17.094 66.0432 16.7423C65.328 16.3088 64.6469 15.8214 64.0059 15.2842L66.269 11.6549H66.515C66.5971 11.7388 66.6798 11.8125 66.763 11.8887C66.84 11.9657 66.9216 12.0331 67.0033 12.1236C67.4807 12.5275 67.9894 12.8931 68.5244 13.2169C69.0527 13.5408 69.6362 13.7644 70.2455 13.8767L70.4398 13.9093C70.5065 13.918 70.5736 13.9225 70.6408 13.9227C70.9937 13.9359 71.3421 13.8407 71.6391 13.6499C71.8299 13.5137 71.9814 13.3296 72.0783 13.1162C72.1239 13.0094 72.1557 12.8972 72.1729 12.7823C72.1837 12.6658 72.1971 12.5658 72.1971 12.4899C72.2228 12.2274 72.1746 11.963 72.0579 11.7264C71.9412 11.4899 71.7607 11.2907 71.5368 11.1514C71.0246 10.8569 70.474 10.6349 69.9009 10.4915L69.7852 10.4502L69.6359 10.413C69.3775 10.3497 69.0959 10.2735 68.7978 10.1743C68.497 10.0736 68.1865 9.96424 67.8806 9.83096C67.0865 9.45855 66.38 8.92245 65.8076 8.25784C65.17 7.55619 64.8553 6.51657 64.8553 5.13361C64.8432 4.45074 64.9752 3.77298 65.2427 3.14459C65.5103 2.5162 65.9074 1.95129 66.408 1.48677C67.4373 0.493915 68.9192 0.00720215 70.8558 0.00720215H71.1007C71.8067 0.0345007 72.5094 0.118032 73.2021 0.256994C74.2753 0.485518 75.2882 0.937826 76.1747 1.5844L76.2403 1.6335L76.2977 1.67874L74.591 5.26122Z" fill="white"/>
<path fill-rule="evenodd" clip-rule="evenodd" d="M80.9254 4.5801H77.1704V0.491211H77.409H89.7075V4.5801H85.9535V17.5203H85.7075H80.9254V4.5801Z" fill="white"/>
<path fill-rule="evenodd" clip-rule="evenodd" d="M91.3774 0.490967H98.6918C98.8613 0.490967 99.2189 0.513192 99.7893 0.550387C100.413 0.605203 101.025 0.758857 101.6 1.00562C102.394 1.34365 103.099 1.85908 103.662 2.51228C104.345 3.39087 104.68 4.49139 104.6 5.60166C104.6 7.09156 104.246 8.22701 103.539 8.99611C102.902 9.71717 102.104 10.2779 101.209 10.6328L101.106 10.6772L101.013 10.7074L105.792 17.5204H99.7655L96.4003 12.2893V17.5204H91.3774V0.490967ZM97.3304 8.1508C97.6387 8.18511 97.9507 8.15258 98.2453 8.05544C98.5399 7.95829 98.8101 7.7988 99.0375 7.58784C99.3469 7.25439 99.5368 6.8277 99.5774 6.37468V5.93621C99.5162 5.49769 99.3184 5.08957 99.0122 4.76974C98.7829 4.5712 98.5154 4.42172 98.2262 4.3305C97.9369 4.23928 97.6321 4.20828 97.3304 4.23938H96.4003V8.1508H97.3304Z" fill="white"/>
<path fill-rule="evenodd" clip-rule="evenodd" d="M107.93 15.3065C106.39 13.5714 105.554 11.3235 105.586 9.00403C105.561 6.6961 106.382 4.45882 107.894 2.71497C109.431 0.90629 111.72 0.00130512 114.761 0H115.006C118.049 0 120.338 0.904984 121.873 2.71497C123.385 4.45839 124.205 6.69621 124.177 9.00403C124.214 11.3107 123.393 13.5488 121.873 15.2842C120.336 17.0612 118.049 17.9675 115.006 17.9819L114.761 18C111.768 18 109.491 17.1022 107.93 15.3065ZM115.372 13.8863C115.555 13.8605 115.735 13.8156 115.909 13.7522C116.747 13.5033 117.491 13.0076 118.043 12.3297C118.688 11.5914 119.01 10.4828 119.008 9.00403C119.008 7.52757 118.682 6.42207 118.031 5.68011C117.478 5.00926 116.74 4.51497 115.909 4.25816C115.731 4.21059 115.552 4.17106 115.385 4.13852C115.219 4.109 115.05 4.09336 114.881 4.09175C114.694 4.09378 114.506 4.10941 114.321 4.13852C114.131 4.16964 113.945 4.21709 113.763 4.28033C112.95 4.55579 112.233 5.05926 111.698 5.73073C111.076 6.47142 110.759 7.56085 110.759 9.00403C110.759 10.4479 111.076 11.5358 111.698 12.2796C112.233 12.9518 112.95 13.4558 113.763 13.7315C113.943 13.7892 114.125 13.8377 114.31 13.8768C114.492 13.9079 114.676 13.9233 114.861 13.9228C115.032 13.9213 115.203 13.9091 115.372 13.8863Z" fill="white"/>
<path fill-rule="evenodd" clip-rule="evenodd" d="M138.804 0.491211H133.336L130.461 4.81714L127.588 0.491211H122.119L128.015 9.35788V17.5203H133.045V9.1436L138.804 0.491211Z" fill="white"/>
<path fill-rule="evenodd" clip-rule="evenodd" d="M17.4199 9.00378L23.0776 17.5202H28.54L22.8887 9.00378H17.4199Z" fill="#D59000"/>
<path fill-rule="evenodd" clip-rule="evenodd" d="M22.8887 9.00392L28.54 0.491211H23.0776L17.4199 9.00392H22.8887Z" fill="#FCCE01"/>
</g>
<defs>
<clipPath id="clip0_971_3777">
<rect width="139.5" height="18" fill="white"/>
</clipPath>
</defs>
</svg>
